<svg width="72" height="16" viewBox="0 0 72 16" fill="none" xmlns="http://www.w3.org/2000/svg">
<path fill-rule="evenodd" clip-rule="evenodd" d="M59.9247 15.7589H54.0364L61.7901 0.262695H67.949L70.9999 15.7589H65.0974L64.8874 13.8263H60.6794L59.9247 15.7589ZM64.5349 10.1556L64.2608 7.31623C64.1967 6.64686 64.2252 5.63921 64.2394 4.91947H64.0116L62.1034 10.1556H64.4922H64.5349Z" fill="white"/>
<path fill-rule="evenodd" clip-rule="evenodd" d="M45.7024 12.8403L50.1133 8.38501L53.83 15.7588H47.1727L45.7024 12.8403Z" fill="white"/>
<path fill-rule="evenodd" clip-rule="evenodd" d="M36.1615 15.7588H42.8188L50.1133 8.38501H43.456L36.1615 15.7588Z" fill="#F39200"/>
<path fill-rule="evenodd" clip-rule="evenodd" d="M40.4799 0.262632L47.1336 0.259033L50.8538 7.63645H44.1965L40.4799 0.262632Z" fill="white"/>
<path fill-rule="evenodd" clip-rule="evenodd" d="M51.4946 0.262695L48.6074 3.18127L50.8538 7.63651L58.1483 0.262695H51.4946Z" fill="#F39200"/>
<path fill-rule="evenodd" clip-rule="evenodd" d="M32.808 0.262695H38.3759L35.9444 15.7589H30.3765L32.808 0.262695Z" fill="white"/>
<path fill-rule="evenodd" clip-rule="evenodd" d="M18.2937 15.7589H12.4054L20.1556 0.262695H26.3145L29.3654 15.7589H23.4664L23.2564 13.8263H19.0449L18.2937 15.7589ZM22.9039 10.1556L22.6298 7.31623C22.5657 6.64686 22.5942 5.63921 22.6085 4.91947H22.3806L20.4724 10.1556H22.8612H22.9039Z" fill="white"/>
<path fill-rule="evenodd" clip-rule="evenodd" d="M13.2633 6.53891C12.5086 5.704 11.4976 4.98066 10.2409 4.98066C8.57121 4.98066 7.0048 6.31579 6.73423 8C6.47435 9.7094 7.70968 11.0193 9.37578 11.0193C10.6574 11.0193 11.7574 10.4723 12.7934 9.58704L11.7183 15.3882C10.7535 15.8129 8.65665 16 7.65628 16C3.28812 15.9964 0.411609 12.5632 1.10226 8.14755C1.80714 3.62033 5.89406 0 10.3868 0C11.6471 0 12.918 0.237517 14.0252 0.636977L13.2633 6.53891Z" fill="white"/>
</svg>
